<?xml version="1.0" encoding="UTF-8"?>
<svg xmlns="http://www.w3.org/2000/svg"
     xmlns:xlink="http://www.w3.org/1999/xlink"
     xmlns:gadfly="http://www.gadflyjl.org/ns"
     version="1.2"
     width="140mm" height="100mm" viewBox="0 0 140 100"
     stroke="none"
     fill="#000000"
     stroke-width="0.3"
     font-size="3.88"
>
<g class="plotroot yscalable" id="img-1d7a77ee-1">
  <g font-size="3.88" font-family="'PT Sans','Helvetica Neue','Helvetica',sans-serif" fill="#564A55" stroke="#000000" stroke-opacity="0.000" id="img-1d7a77ee-2">
    <text x="74.66" y="88.39" text-anchor="middle" dy="0.6em">x</text>
  </g>
  <g class="guide xlabels" font-size="1.06" font-family="'PT Sans Caption','Helvetica Neue','Helvetica',sans-serif" fill="#6C606B" id="img-1d7a77ee-3">
    <text x="15.05" y="79.75" text-anchor="end" dy="0.35em" transform="rotate(-90, 15.05, 79.75)">V</text>
    <text x="16.52" y="79.75" text-anchor="end" dy="0.35em" transform="rotate(-90, 16.52, 79.75)">S</text>
    <text x="17.99" y="79.75" text-anchor="end" dy="0.35em" transform="rotate(-90, 17.99, 79.75)">R</text>
    <text x="19.46" y="79.75" text-anchor="end" dy="0.35em" transform="rotate(-90, 19.46, 79.75)">G</text>
    <text x="20.94" y="79.75" text-anchor="end" dy="0.35em" transform="rotate(-90, 20.94, 79.75)">W1</text>
    <text x="22.41" y="79.75" text-anchor="end" dy="0.35em" transform="rotate(-90, 22.41, 79.75)">W2</text>
    <text x="23.88" y="79.75" text-anchor="end" dy="0.35em" transform="rotate(-90, 23.88, 79.75)">W3</text>
    <text x="25.35" y="79.75" text-anchor="end" dy="0.35em" transform="rotate(-90, 25.35, 79.75)">W4</text>
    <text x="26.82" y="79.75" text-anchor="end" dy="0.35em" transform="rotate(-90, 26.82, 79.75)">W5</text>
    <text x="28.3" y="79.75" text-anchor="end" dy="0.35em" transform="rotate(-90, 28.3, 79.75)">W6</text>
    <text x="29.77" y="79.75" text-anchor="end" dy="0.35em" transform="rotate(-90, 29.77, 79.75)">W7</text>
    <text x="31.24" y="79.75" text-anchor="end" dy="0.35em" transform="rotate(-90, 31.24, 79.75)">W8</text>
    <text x="32.71" y="79.75" text-anchor="end" dy="0.35em" transform="rotate(-90, 32.71, 79.75)">IW1</text>
    <text x="34.18" y="79.75" text-anchor="end" dy="0.35em" transform="rotate(-90, 34.18, 79.75)">IW2</text>
    <text x="35.65" y="79.75" text-anchor="end" dy="0.35em" transform="rotate(-90, 35.65, 79.75)">IW3</text>
    <text x="37.13" y="79.75" text-anchor="end" dy="0.35em" transform="rotate(-90, 37.13, 79.75)">IW4</text>
    <text x="38.6" y="79.75" text-anchor="end" dy="0.35em" transform="rotate(-90, 38.6, 79.75)">CW1</text>
    <text x="40.07" y="79.75" text-anchor="end" dy="0.35em" transform="rotate(-90, 40.07, 79.75)">CW2</text>
    <text x="41.54" y="79.75" text-anchor="end" dy="0.35em" transform="rotate(-90, 41.54, 79.75)">CW3</text>
    <text x="43.01" y="79.75" text-anchor="end" dy="0.35em" transform="rotate(-90, 43.01, 79.75)">CW4</text>
    <text x="44.48" y="79.75" text-anchor="end" dy="0.35em" transform="rotate(-90, 44.48, 79.75)">CW5</text>
    <text x="45.96" y="79.75" text-anchor="end" dy="0.35em" transform="rotate(-90, 45.96, 79.75)">CW6</text>
    <text x="47.43" y="79.75" text-anchor="end" dy="0.35em" transform="rotate(-90, 47.43, 79.75)">CW7</text>
    <text x="48.9" y="79.75" text-anchor="end" dy="0.35em" transform="rotate(-90, 48.9, 79.75)">CW8</text>
    <text x="50.37" y="79.75" text-anchor="end" dy="0.35em" transform="rotate(-90, 50.37, 79.75)">PSA</text>
    <text x="51.84" y="79.75" text-anchor="end" dy="0.35em" transform="rotate(-90, 51.84, 79.75)">PSAR</text>
    <text x="53.32" y="79.75" text-anchor="end" dy="0.35em" transform="rotate(-90, 53.32, 79.75)">D1</text>
    <text x="54.79" y="79.75" text-anchor="end" dy="0.35em" transform="rotate(-90, 54.79, 79.75)">D2</text>
    <text x="56.26" y="79.75" text-anchor="end" dy="0.35em" transform="rotate(-90, 56.26, 79.75)">D3</text>
    <text x="57.73" y="79.75" text-anchor="end" dy="0.35em" transform="rotate(-90, 57.73, 79.75)">D4</text>
    <text x="59.2" y="79.75" text-anchor="end" dy="0.35em" transform="rotate(-90, 59.2, 79.75)">D5</text>
    <text x="60.67" y="79.75" text-anchor="end" dy="0.35em" transform="rotate(-90, 60.67, 79.75)">D6</text>
    <text x="62.15" y="79.75" text-anchor="end" dy="0.35em" transform="rotate(-90, 62.15, 79.75)">D7</text>
    <text x="63.62" y="79.75" text-anchor="end" dy="0.35em" transform="rotate(-90, 63.62, 79.75)">D8</text>
    <text x="65.09" y="79.75" text-anchor="end" dy="0.35em" transform="rotate(-90, 65.09, 79.75)">DD1</text>
    <text x="66.56" y="79.75" text-anchor="end" dy="0.35em" transform="rotate(-90, 66.56, 79.75)">DD2</text>
    <text x="68.03" y="79.75" text-anchor="end" dy="0.35em" transform="rotate(-90, 68.03, 79.75)">DD3</text>
    <text x="69.51" y="79.75" text-anchor="end" dy="0.35em" transform="rotate(-90, 69.51, 79.75)">DD4</text>
    <text x="70.98" y="79.75" text-anchor="end" dy="0.35em" transform="rotate(-90, 70.98, 79.75)">DD5</text>
    <text x="72.45" y="79.75" text-anchor="end" dy="0.35em" transform="rotate(-90, 72.45, 79.75)">DD6</text>
    <text x="73.92" y="79.75" text-anchor="end" dy="0.35em" transform="rotate(-90, 73.92, 79.75)">DD7</text>
    <text x="75.39" y="79.75" text-anchor="end" dy="0.35em" transform="rotate(-90, 75.39, 79.75)">DD8</text>
    <text x="76.86" y="79.75" text-anchor="end" dy="0.35em" transform="rotate(-90, 76.86, 79.75)">ID1</text>
    <text x="78.34" y="79.75" text-anchor="end" dy="0.35em" transform="rotate(-90, 78.34, 79.75)">ID2</text>
    <text x="79.81" y="79.75" text-anchor="end" dy="0.35em" transform="rotate(-90, 79.81, 79.75)">ID3</text>
    <text x="81.28" y="79.75" text-anchor="end" dy="0.35em" transform="rotate(-90, 81.28, 79.75)">ID4</text>
    <text x="82.75" y="79.75" text-anchor="end" dy="0.35em" transform="rotate(-90, 82.75, 79.75)">CD1</text>
    <text x="84.22" y="79.75" text-anchor="end" dy="0.35em" transform="rotate(-90, 84.22, 79.75)">CD2</text>
    <text x="85.7" y="79.75" text-anchor="end" dy="0.35em" transform="rotate(-90, 85.7, 79.75)">CD3</text>
    <text x="87.17" y="79.75" text-anchor="end" dy="0.35em" transform="rotate(-90, 87.17, 79.75)">CD4</text>
    <text x="88.64" y="79.75" text-anchor="end" dy="0.35em" transform="rotate(-90, 88.64, 79.75)">CD5</text>
    <text x="90.11" y="79.75" text-anchor="end" dy="0.35em" transform="rotate(-90, 90.11, 79.75)">CD6</text>
    <text x="91.58" y="79.75" text-anchor="end" dy="0.35em" transform="rotate(-90, 91.58, 79.75)">CD7</text>
    <text x="93.05" y="79.75" text-anchor="end" dy="0.35em" transform="rotate(-90, 93.05, 79.75)">CD8</text>
    <text x="94.53" y="79.75" text-anchor="end" dy="0.35em" transform="rotate(-90, 94.53, 79.75)">HSA</text>
    <text x="96" y="79.75" text-anchor="end" dy="0.35em" transform="rotate(-90, 96, 79.75)">PHSAR</text>
    <text x="97.47" y="79.75" text-anchor="end" dy="0.35em" transform="rotate(-90, 97.47, 79.75)">WO1</text>
    <text x="98.94" y="79.75" text-anchor="end" dy="0.35em" transform="rotate(-90, 98.94, 79.75)">WO2</text>
    <text x="100.41" y="79.75" text-anchor="end" dy="0.35em" transform="rotate(-90, 100.41, 79.75)">WO3</text>
    <text x="101.88" y="79.75" text-anchor="end" dy="0.35em" transform="rotate(-90, 101.88, 79.75)">WO4</text>
    <text x="103.36" y="79.75" text-anchor="end" dy="0.35em" transform="rotate(-90, 103.36, 79.75)">WO5</text>
    <text x="104.83" y="79.75" text-anchor="end" dy="0.35em" transform="rotate(-90, 104.83, 79.75)">WO6</text>
    <text x="106.3" y="79.75" text-anchor="end" dy="0.35em" transform="rotate(-90, 106.3, 79.75)">WN1</text>
    <text x="107.77" y="79.75" text-anchor="end" dy="0.35em" transform="rotate(-90, 107.77, 79.75)">WN2</text>
    <text x="109.24" y="79.75" text-anchor="end" dy="0.35em" transform="rotate(-90, 109.24, 79.75)">WN3</text>
    <text x="110.72" y="79.75" text-anchor="end" dy="0.35em" transform="rotate(-90, 110.72, 79.75)">WN4</text>
    <text x="112.19" y="79.75" text-anchor="end" dy="0.35em" transform="rotate(-90, 112.19, 79.75)">WN5</text>
    <text x="113.66" y="79.75" text-anchor="end" dy="0.35em" transform="rotate(-90, 113.66, 79.75)">WN6</text>
    <text x="115.13" y="79.75" text-anchor="end" dy="0.35em" transform="rotate(-90, 115.13, 79.75)">HL1</text>
    <text x="116.6" y="79.75" text-anchor="end" dy="0.35em" transform="rotate(-90, 116.6, 79.75)">HL2</text>
    <text x="118.07" y="79.75" text-anchor="end" dy="0.35em" transform="rotate(-90, 118.07, 79.75)">A</text>
    <text x="119.55" y="79.75" text-anchor="end" dy="0.35em" transform="rotate(-90, 119.55, 79.75)">CP</text>
    <text x="121.02" y="79.75" text-anchor="end" dy="0.35em" transform="rotate(-90, 121.02, 79.75)">DRDRDR</text>
    <text x="122.49" y="79.75" text-anchor="end" dy="0.35em" transform="rotate(-90, 122.49, 79.75)">DRDRAC</text>
    <text x="123.96" y="79.75" text-anchor="end" dy="0.35em" transform="rotate(-90, 123.96, 79.75)">DRDRDO</text>
    <text x="125.43" y="79.75" text-anchor="end" dy="0.35em" transform="rotate(-90, 125.43, 79.75)">DRACAC</text>
    <text x="126.91" y="79.75" text-anchor="end" dy="0.35em" transform="rotate(-90, 126.91, 79.75)">DRACDO</text>
    <text x="128.38" y="79.75" text-anchor="end" dy="0.35em" transform="rotate(-90, 128.38, 79.75)">DRDODO</text>
    <text x="129.85" y="79.75" text-anchor="end" dy="0.35em" transform="rotate(-90, 129.85, 79.75)">ACACAC</text>
    <text x="131.32" y="79.75" text-anchor="end" dy="0.35em" transform="rotate(-90, 131.32, 79.75)">ACACDO</text>
    <text x="132.79" y="79.75" text-anchor="end" dy="0.35em" transform="rotate(-90, 132.79, 79.75)">ACDODO</text>
    <text x="134.26" y="79.75" text-anchor="end" dy="0.35em" transform="rotate(-90, 134.26, 79.75)">DODODO</text>
  </g>
<g clip-path="url(#img-1d7a77ee-4)">
  <g id="img-1d7a77ee-5">
    <g pointer-events="visible" opacity="1" fill="#000000" fill-opacity="0.000" stroke="#000000" stroke-opacity="0.000" class="guide background" id="img-1d7a77ee-6">
      <rect x="14.31" y="5" width="120.69" height="73.75"/>
    </g>
    <g class="guide ygridlines xfixed" stroke-dasharray="0.5,0.5" stroke-width="0.2" stroke="#D0D0E0" id="img-1d7a77ee-7">
      <path fill="none" d="M14.31,76.75 L 135 76.75"/>
      <path fill="none" d="M14.31,41.87 L 135 41.87"/>
      <path fill="none" d="M14.31,7 L 135 7"/>
    </g>
    <g class="guide xgridlines yfixed" stroke-dasharray="0.5,0.5" stroke-width="0.2" stroke="#D0D0E0" id="img-1d7a77ee-8">
      <path fill="none" d="M15.79,5 L 15.79 78.75"/>
      <path fill="none" d="M17.26,5 L 17.26 78.75"/>
      <path fill="none" d="M18.73,5 L 18.73 78.75"/>
      <path fill="none" d="M20.2,5 L 20.2 78.75"/>
      <path fill="none" d="M21.67,5 L 21.67 78.75"/>
      <path fill="none" d="M23.14,5 L 23.14 78.75"/>
      <path fill="none" d="M24.62,5 L 24.62 78.75"/>
      <path fill="none" d="M26.09,5 L 26.09 78.75"/>
      <path fill="none" d="M27.56,5 L 27.56 78.75"/>
      <path fill="none" d="M29.03,5 L 29.03 78.75"/>
      <path fill="none" d="M30.5,5 L 30.5 78.75"/>
      <path fill="none" d="M31.97,5 L 31.97 78.75"/>
      <path fill="none" d="M33.45,5 L 33.45 78.75"/>
      <path fill="none" d="M34.92,5 L 34.92 78.75"/>
      <path fill="none" d="M36.39,5 L 36.39 78.75"/>
      <path fill="none" d="M37.86,5 L 37.86 78.75"/>
      <path fill="none" d="M39.33,5 L 39.33 78.75"/>
      <path fill="none" d="M40.81,5 L 40.81 78.75"/>
      <path fill="none" d="M42.28,5 L 42.28 78.75"/>
      <path fill="none" d="M43.75,5 L 43.75 78.75"/>
      <path fill="none" d="M45.22,5 L 45.22 78.75"/>
      <path fill="none" d="M46.69,5 L 46.69 78.75"/>
      <path fill="none" d="M48.16,5 L 48.16 78.75"/>
      <path fill="none" d="M49.64,5 L 49.64 78.75"/>
      <path fill="none" d="M51.11,5 L 51.11 78.75"/>
      <path fill="none" d="M52.58,5 L 52.58 78.75"/>
      <path fill="none" d="M54.05,5 L 54.05 78.75"/>
      <path fill="none" d="M55.52,5 L 55.52 78.75"/>
      <path fill="none" d="M57,5 L 57 78.75"/>
      <path fill="none" d="M58.47,5 L 58.47 78.75"/>
      <path fill="none" d="M59.94,5 L 59.94 78.75"/>
      <path fill="none" d="M61.41,5 L 61.41 78.75"/>
      <path fill="none" d="M62.88,5 L 62.88 78.75"/>
      <path fill="none" d="M64.35,5 L 64.35 78.75"/>
      <path fill="none" d="M65.83,5 L 65.83 78.75"/>
      <path fill="none" d="M67.3,5 L 67.3 78.75"/>
      <path fill="none" d="M68.77,5 L 68.77 78.75"/>
      <path fill="none" d="M70.24,5 L 70.24 78.75"/>
      <path fill="none" d="M71.71,5 L 71.71 78.75"/>
      <path fill="none" d="M73.18,5 L 73.18 78.75"/>
      <path fill="none" d="M74.66,5 L 74.66 78.75"/>
      <path fill="none" d="M76.13,5 L 76.13 78.75"/>
      <path fill="none" d="M77.6,5 L 77.6 78.75"/>
      <path fill="none" d="M79.07,5 L 79.07 78.75"/>
      <path fill="none" d="M80.54,5 L 80.54 78.75"/>
      <path fill="none" d="M82.02,5 L 82.02 78.75"/>
      <path fill="none" d="M83.49,5 L 83.49 78.75"/>
      <path fill="none" d="M84.96,5 L 84.96 78.75"/>
      <path fill="none" d="M86.43,5 L 86.43 78.75"/>
      <path fill="none" d="M87.9,5 L 87.9 78.75"/>
      <path fill="none" d="M89.37,5 L 89.37 78.75"/>
      <path fill="none" d="M90.85,5 L 90.85 78.75"/>
      <path fill="none" d="M92.32,5 L 92.32 78.75"/>
      <path fill="none" d="M93.79,5 L 93.79 78.75"/>
      <path fill="none" d="M95.26,5 L 95.26 78.75"/>
      <path fill="none" d="M96.73,5 L 96.73 78.75"/>
      <path fill="none" d="M98.21,5 L 98.21 78.75"/>
      <path fill="none" d="M99.68,5 L 99.68 78.75"/>
      <path fill="none" d="M101.15,5 L 101.15 78.75"/>
      <path fill="none" d="M102.62,5 L 102.62 78.75"/>
      <path fill="none" d="M104.09,5 L 104.09 78.75"/>
      <path fill="none" d="M105.56,5 L 105.56 78.75"/>
      <path fill="none" d="M107.04,5 L 107.04 78.75"/>
      <path fill="none" d="M108.51,5 L 108.51 78.75"/>
      <path fill="none" d="M109.98,5 L 109.98 78.75"/>
      <path fill="none" d="M111.45,5 L 111.45 78.75"/>
      <path fill="none" d="M112.92,5 L 112.92 78.75"/>
      <path fill="none" d="M114.39,5 L 114.39 78.75"/>
      <path fill="none" d="M115.87,5 L 115.87 78.75"/>
      <path fill="none" d="M117.34,5 L 117.34 78.75"/>
      <path fill="none" d="M118.81,5 L 118.81 78.75"/>
      <path fill="none" d="M120.28,5 L 120.28 78.75"/>
      <path fill="none" d="M121.75,5 L 121.75 78.75"/>
      <path fill="none" d="M123.23,5 L 123.23 78.75"/>
      <path fill="none" d="M124.7,5 L 124.7 78.75"/>
      <path fill="none" d="M126.17,5 L 126.17 78.75"/>
      <path fill="none" d="M127.64,5 L 127.64 78.75"/>
      <path fill="none" d="M129.11,5 L 129.11 78.75"/>
      <path fill="none" d="M130.58,5 L 130.58 78.75"/>
      <path fill="none" d="M132.06,5 L 132.06 78.75"/>
      <path fill="none" d="M133.53,5 L 133.53 78.75"/>
    </g>
    <g class="plotpanel" id="img-1d7a77ee-9">
      <g shape-rendering="crispEdges" stroke-width="0.3" id="img-1d7a77ee-10">
        <g stroke="#000000" stroke-opacity="0.000" fill="#00BFFF" class="geometry" id="img-1d7a77ee-11">
          <rect x="14.29" y="69.75" width="1.52" height="7"/>
          <rect x="15.76" y="19.45" width="1.52" height="57.29"/>
          <rect x="17.23" y="76.75" width="1.52" height="0.01"/>
          <rect x="18.7" y="71.29" width="1.52" height="5.45"/>
          <rect x="20.18" y="76.75" width="1.52" height="0.01"/>
          <rect x="21.65" y="76.63" width="1.52" height="0.11"/>
          <rect x="23.12" y="73.69" width="1.52" height="3.06"/>
          <rect x="24.59" y="54.22" width="1.52" height="22.53"/>
          <rect x="26.06" y="76.75" width="1.52" height="0.01"/>
          <rect x="27.53" y="76.75" width="1.52" height="0.01"/>
          <rect x="29.01" y="76.75" width="1.52" height="0.01"/>
          <rect x="30.48" y="76.75" width="1.52" height="0.01"/>
          <rect x="31.95" y="72.73" width="1.52" height="4.02"/>
          <rect x="33.42" y="59.32" width="1.52" height="17.43"/>
          <rect x="34.89" y="76.75" width="1.52" height="0.01"/>
          <rect x="36.37" y="76.75" width="1.52" height="0.01"/>
          <rect x="37.84" y="76.75" width="1.52" height="0.01"/>
          <rect x="39.31" y="76.75" width="1.52" height="0.01"/>
          <rect x="40.78" y="76.75" width="1.52" height="0.01"/>
          <rect x="42.25" y="76.75" width="1.52" height="0.01"/>
          <rect x="43.72" y="75.18" width="1.52" height="1.56"/>
          <rect x="45.2" y="76.75" width="1.52" height="0.01"/>
          <rect x="46.67" y="76.75" width="1.52" height="0.01"/>
          <rect x="48.14" y="76.75" width="1.52" height="0.01"/>
          <rect x="49.61" y="58.63" width="1.52" height="18.11"/>
          <rect x="51.08" y="73.81" width="1.52" height="2.93"/>
          <rect x="52.55" y="76.62" width="1.52" height="0.12"/>
          <rect x="54.03" y="76.75" width="1.52" height="0.01"/>
          <rect x="55.5" y="76.75" width="1.52" height="0.01"/>
          <rect x="56.97" y="64.05" width="1.52" height="12.7"/>
          <rect x="58.44" y="58.6" width="1.52" height="18.15"/>
          <rect x="59.91" y="76.75" width="1.52" height="0.01"/>
          <rect x="61.39" y="75.57" width="1.52" height="1.18"/>
          <rect x="62.86" y="75.53" width="1.52" height="1.22"/>
          <rect x="64.33" y="76.05" width="1.52" height="0.7"/>
          <rect x="65.8" y="53.2" width="1.52" height="23.54"/>
          <rect x="67.27" y="73.48" width="1.52" height="3.27"/>
          <rect x="68.74" y="74.35" width="1.52" height="2.39"/>
          <rect x="70.22" y="74.67" width="1.52" height="2.07"/>
          <rect x="71.69" y="75.5" width="1.52" height="1.25"/>
          <rect x="73.16" y="75.81" width="1.52" height="0.94"/>
          <rect x="74.63" y="76.1" width="1.52" height="0.64"/>
          <rect x="76.1" y="76.45" width="1.52" height="0.29"/>
          <rect x="77.58" y="76.71" width="1.52" height="0.03"/>
          <rect x="79.05" y="76.54" width="1.52" height="0.21"/>
          <rect x="80.52" y="76.75" width="1.52" height="0.01"/>
          <rect x="81.99" y="76.75" width="1.52" height="0.01"/>
          <rect x="83.46" y="76.75" width="1.52" height="0.01"/>
          <rect x="84.93" y="76.75" width="1.52" height="0.01"/>
          <rect x="86.41" y="76.75" width="1.52" height="0.01"/>
          <rect x="87.88" y="76.37" width="1.52" height="0.37"/>
          <rect x="89.35" y="76.44" width="1.52" height="0.31"/>
          <rect x="90.82" y="76.52" width="1.52" height="0.23"/>
          <rect x="92.29" y="76.68" width="1.52" height="0.06"/>
          <rect x="93.76" y="76.7" width="1.52" height="0.05"/>
          <rect x="95.24" y="76.71" width="1.52" height="0.04"/>
          <rect x="96.71" y="61.4" width="1.52" height="15.35"/>
          <rect x="98.18" y="54.11" width="1.52" height="22.64"/>
          <rect x="99.65" y="58.9" width="1.52" height="17.84"/>
          <rect x="101.12" y="70.39" width="1.52" height="6.36"/>
          <rect x="102.6" y="76.75" width="1.52" height="0.01"/>
          <rect x="104.07" y="69.18" width="1.52" height="7.56"/>
          <rect x="105.54" y="75.88" width="1.52" height="0.86"/>
          <rect x="107.01" y="76.32" width="1.52" height="0.43"/>
          <rect x="108.48" y="65.84" width="1.52" height="10.9"/>
          <rect x="109.95" y="19.2" width="1.52" height="57.55"/>
          <rect x="111.43" y="76.75" width="1.52" height="0.01"/>
          <rect x="112.9" y="76.75" width="1.52" height="0.01"/>
          <rect x="114.37" y="73.68" width="1.52" height="3.06"/>
          <rect x="115.84" y="68.87" width="1.52" height="7.88"/>
          <rect x="117.31" y="76.75" width="1.52" height="0.01"/>
          <rect x="118.79" y="76.75" width="1.52" height="0.01"/>
          <rect x="120.26" y="65.32" width="1.52" height="11.43"/>
          <rect x="121.73" y="76.75" width="1.52" height="0.01"/>
          <rect x="123.2" y="61.87" width="1.52" height="14.88"/>
          <rect x="124.67" y="76.75" width="1.52" height="0.01"/>
          <rect x="126.14" y="76.36" width="1.52" height="0.39"/>
          <rect x="127.62" y="64.17" width="1.52" height="12.58"/>
          <rect x="129.09" y="70.13" width="1.52" height="6.62"/>
          <rect x="130.56" y="67.97" width="1.52" height="8.77"/>
          <rect x="132.03" y="72.94" width="1.52" height="3.81"/>
          <rect x="133.5" y="76.4" width="1.52" height="0.34"/>
        </g>
      </g>
    </g>
  </g>
</g>
  <g class="guide ylabels" font-size="1.06" font-family="'PT Sans Caption','Helvetica Neue','Helvetica',sans-serif" fill="#6C606B" id="img-1d7a77ee-12">
    <text x="13.31" y="76.75" text-anchor="end" dy="0.35em">0.0</text>
    <text x="13.31" y="41.87" text-anchor="end" dy="0.35em">0.5</text>
    <text x="13.31" y="7" text-anchor="end" dy="0.35em">1.0</text>
  </g>
  <g font-size="3.88" font-family="'PT Sans','Helvetica Neue','Helvetica',sans-serif" fill="#564A55" stroke="#000000" stroke-opacity="0.000" id="img-1d7a77ee-13">
    <text x="8.81" y="41.87" text-anchor="end" dy="0.35em">y</text>
  </g>
</g>
<defs>
  <clipPath id="img-1d7a77ee-4">
  <path d="M14.31,5 L 135 5 135 78.75 14.31 78.75" />
</clipPath>
</defs>
</svg>
